<svg xmlns="http://www.w3.org/2000/svg" xmlns:xlink="http://www.w3.org/1999/xlink" width="500" zoomAndPan="magnify" viewBox="0 0 375 374.999991" height="500" preserveAspectRatio="xMidYMid meet" version="1.0"><defs><clipPath id="4797f05e99"><path d="M 89 35.59375 L 286 35.59375 L 286 339.34375 L 89 339.34375 Z M 89 35.59375 " clip-rule="nonzero"/></clipPath></defs><g clip-path="url(#4797f05e99)"><path fill="#ffffff" d="M 224.21875 126.707031 L 274.886719 126.707031 C 279.066406 126.707031 282.644531 128.90625 284.511719 132.640625 C 286.378906 136.371094 286.023438 140.550781 283.53125 143.90625 L 149.632812 324.097656 C 148.566406 325.519531 147.390625 326.519531 145.789062 327.320312 L 124.453125 337.988281 C 121.296875 339.566406 117.898438 339.542969 114.742188 337.964844 L 106.164062 333.585938 C 101.429688 331.1875 99.164062 325.832031 100.765625 320.765625 L 132.320312 220.132812 L 100.140625 220.132812 C 96.742188 220.132812 93.851562 218.734375 91.71875 216.089844 C 89.609375 213.46875 88.875 210.3125 89.609375 207.023438 L 123.433594 54.878906 C 124.164062 51.589844 126.121094 49.078125 129.121094 47.566406 L 150.480469 36.898438 C 152.078125 36.097656 153.613281 35.742188 155.390625 35.742188 L 262.265625 36.65625 C 266.308594 36.699219 269.730469 38.765625 271.664062 42.300781 C 273.578125 45.832031 273.421875 49.855469 271.265625 53.234375 L 224.21875 126.707031 " fill-opacity="1" fill-rule="evenodd"/></g><path fill="#000000" d="M 159.234375 46.566406 L 262.175781 47.433594 L 204.527344 137.484375 L 274.886719 137.484375 L 140.988281 317.675781 L 119.632812 328.34375 L 111.03125 323.984375 L 147.011719 209.355469 L 100.140625 209.355469 L 133.945312 57.210938 L 155.300781 46.523438 L 159.234375 46.566406 " fill-opacity="1" fill-rule="evenodd"/><path fill="#ffbb00" d="M 253.308594 52.234375 L 159.210938 51.433594 L 127.566406 193.777344 L 175.015625 193.777344 L 137.054688 314.761719 L 265.152344 142.375 L 195.570312 142.375 L 253.308594 52.234375 " fill-opacity="1" fill-rule="evenodd"/></svg>